<svg width="32" height="32" viewBox="0 0 32 32" fill="none" xmlns="http://www.w3.org/2000/svg">
<g clip-path="url(#clip0_2095_413)">
<path fill-rule="evenodd" clip-rule="evenodd" d="M3.30323 21.3096C2.88936 22.0749 1.94729 22.3686 1.20979 21.9623C0.472298 21.556 0.207488 20.5974 0.621353 19.8321L5.56503 10.6904C5.9789 9.92507 6.92097 9.63131 7.65847 10.0376C8.39596 10.4439 8.66077 11.4026 8.24691 12.1679L3.30323 21.3096Z" fill="#1E1E1E"/>
<path fill-rule="evenodd" clip-rule="evenodd" d="M13.3716 21.3096C12.9577 22.0749 12.0156 22.3687 11.2782 21.9624C10.5407 21.5561 10.2758 20.5975 10.6897 19.8321L13.1979 15.194C13.6117 14.4287 14.5538 14.135 15.2913 14.5413C16.0288 14.9476 16.2936 15.9062 15.8797 16.6715L13.3716 21.3096Z" fill="#1E1E1E"/>
<path fill-rule="evenodd" clip-rule="evenodd" d="M10.6323 21.3096C11.0462 22.0749 11.9883 22.3686 12.7258 21.9623C13.4633 21.556 13.7281 20.5974 13.3142 19.8321L8.37061 10.6904C7.95675 9.92507 7.01467 9.63131 6.27718 10.0376C5.53968 10.4439 5.27487 11.4026 5.68874 12.1679L10.6323 21.3096Z" fill="#1E1E1E"/>
<path fill-rule="evenodd" clip-rule="evenodd" d="M15.7526 21.3097C16.1664 22.075 17.1085 22.3688 17.846 21.9625C18.5835 21.5562 18.8483 20.5975 18.4344 19.8322L15.9263 15.194C15.5124 14.4287 14.5703 14.135 13.8328 14.5413C13.0953 14.9476 12.8305 15.9062 13.2444 16.6715L15.7526 21.3097Z" fill="#1E1E1E"/>
<path fill-rule="evenodd" clip-rule="evenodd" d="M18.5151 21.3096C18.1013 22.0749 17.1592 22.3687 16.4217 21.9624C15.6842 21.5561 15.4194 20.5975 15.8333 19.8321L18.3414 15.194C18.7553 14.4287 19.6974 14.135 20.4349 14.5413C21.1724 14.9476 21.4372 15.9062 21.0233 16.6715L18.5151 21.3096Z" fill="#1E1E1E"/>
<path fill-rule="evenodd" clip-rule="evenodd" d="M20.8961 21.3096C21.31 22.0749 22.2521 22.3687 22.9895 21.9624C23.727 21.5561 23.9919 20.5975 23.578 19.8321L21.0698 15.194C20.656 14.4287 19.7139 14.135 18.9764 14.5413C18.2389 14.9476 17.9741 15.9062 18.388 16.6715L20.8961 21.3096Z" fill="#1E1E1E"/>
<path fill-rule="evenodd" clip-rule="evenodd" d="M23.6763 21.3096C23.2624 22.0749 22.3203 22.3687 21.5828 21.9624C20.8453 21.5561 20.5805 20.5975 20.9944 19.8321L23.5026 15.194C23.9164 14.4287 24.8585 14.135 25.596 14.5413C26.3335 14.9476 26.5983 15.9062 26.1844 16.6715L23.6763 21.3096Z" fill="#1E1E1E"/>
<path fill-rule="evenodd" clip-rule="evenodd" d="M26.0563 21.3096C26.4701 22.0749 27.4122 22.3687 28.1497 21.9624C28.8872 21.5561 29.152 20.5975 28.7381 19.8321L26.23 15.194C25.8161 14.4287 24.874 14.135 24.1366 14.5413C23.3991 14.9476 23.1342 15.9062 23.5481 16.6715L26.0563 21.3096Z" fill="#1E1E1E"/>
<path fill-rule="evenodd" clip-rule="evenodd" d="M28.8452 21.3096C28.4314 22.0749 27.4893 22.3687 26.7518 21.9624C26.0143 21.5561 25.7495 20.5975 26.1633 19.8321L28.6715 15.194C29.0854 14.4287 30.0274 14.135 30.7649 14.5413C31.5024 14.9476 31.7672 15.9062 31.3534 16.6715L28.8452 21.3096Z" fill="#1E1E1E"/>
</g>
<defs>
<clipPath id="clip0_2095_413">
<rect width="32" height="13.1148" fill="white" transform="translate(0 9.44263)"/>
</clipPath>
</defs>
</svg>
