<svg width="33" height="32" viewBox="0 0 33 32" fill="none" xmlns="http://www.w3.org/2000/svg">
<path d="M11.2681 6.54833C11.9893 4.79734 14.1397 4.52417 15.2759 6.03909C15.4253 6.23816 15.5751 6.44769 15.7248 6.66622C16.1668 6.43709 16.6006 6.23752 17.0147 6.06426C18.756 5.33562 20.4647 6.66859 20.2 8.54976C20.1491 8.9115 20.0838 9.29021 20.0031 9.68029C20.2894 9.78199 20.5648 9.88806 20.8268 9.99597C22.5774 10.7175 22.8499 12.8669 21.3349 14.0029C21.0641 14.206 20.7738 14.4099 20.4673 14.6123C20.634 14.9575 20.7856 15.2949 20.9194 15.621C21.642 17.3826 20.3254 19.1049 18.4613 18.8363C18.0899 18.7828 17.7006 18.7143 17.2989 18.6286C17.1961 18.9187 17.0909 19.1982 16.9817 19.4634C16.2602 21.2141 14.1098 21.4867 12.9737 19.9717C12.7722 19.7028 12.5692 19.4154 12.3683 19.1114C12.223 19.1768 12.0795 19.2399 11.9383 19.2989C10.1971 20.0275 8.48918 18.6936 8.75376 16.8124C8.78755 16.5721 8.82666 16.3243 8.87314 16.0707C8.53716 15.9546 8.2152 15.8335 7.91161 15.7085C6.16098 14.9873 5.88793 12.838 7.4025 11.7017C7.60479 11.55 7.81693 11.3958 8.03931 11.2437C7.89342 10.9364 7.76009 10.6351 7.64042 10.3435C6.91781 8.58199 8.2336 6.86087 10.0976 7.12921C10.3836 7.17038 10.6803 7.22051 10.9851 7.28027C11.0767 7.02673 11.1718 6.78231 11.2681 6.54833Z" fill="currentColor"/>
<path d="M18.4838 20.9719V20.9719C19.8938 22.7564 20.4373 25.0754 19.9672 27.3006L19.8252 27.9727" stroke="currentColor" stroke-width="2" stroke-linecap="round"/>
<path d="M22.0605 21.5977C22.0605 19.9408 23.4037 18.5977 25.0605 18.5977H26.9355V20.4727C26.9355 22.1295 25.5924 23.4727 23.9355 23.4727H22.0605V21.5977Z" fill="currentColor"/>
</svg>
