<svg width="33" height="33" viewBox="0 0 33 33" fill="none" xmlns="http://www.w3.org/2000/svg">
<path d="M12.6992 6.26587C14.1325 3.74519 17.4512 3.74533 18.8848 6.26587C19.0731 6.59704 19.2612 6.94415 19.4463 7.30493C20.1619 7.04225 20.8592 6.82215 21.5215 6.63892C24.3071 5.86835 26.6443 8.22308 25.8789 11.0295C25.7317 11.5693 25.5602 12.1322 25.3623 12.7092C25.7774 12.9189 26.1749 13.1326 26.5518 13.3469C29.0719 14.7806 29.0723 18.0992 26.5518 19.5325C26.1012 19.7887 25.6208 20.042 25.1162 20.2903C25.3026 20.8464 25.4663 21.3886 25.6064 21.9094C26.3638 24.7246 24.0323 27.086 21.2529 26.3186C20.6996 26.1658 20.1214 25.9869 19.5283 25.7795C19.3163 26.2 19.1017 26.6032 18.8848 26.9846C17.4512 29.5049 14.1327 29.5048 12.6992 26.9846C12.4448 26.5372 12.1919 26.0605 11.9453 25.5598C11.7119 25.6311 11.4818 25.6994 11.2559 25.762C8.47047 26.5327 6.13268 24.1777 6.89746 21.3713C6.99518 21.0128 7.10408 20.6441 7.22363 20.2678C6.73567 20.0266 6.27006 19.781 5.83301 19.5325C3.31228 18.0992 3.31245 14.7805 5.83301 13.3469C6.16915 13.1557 6.52105 12.9644 6.8877 12.7766C6.7252 12.281 6.5807 11.7969 6.45508 11.3303C5.69733 8.51525 8.02809 6.15408 10.8076 6.92114C11.2343 7.03895 11.6762 7.17281 12.1279 7.32251C12.316 6.95519 12.5078 6.60259 12.6992 6.26587ZM16.1924 12.7502C14.0523 12.7502 12.3174 14.4851 12.3174 16.6252C12.3175 18.7652 14.0524 20.5002 16.1924 20.5002C18.3324 20.5002 20.0673 18.7652 20.0674 16.6252C20.0674 14.4851 18.3325 12.7502 16.1924 12.7502Z" fill="currentColor"/>
</svg>
