<svg width="32" height="32" viewBox="0 0 32 32" fill="none" xmlns="http://www.w3.org/2000/svg">
<mask id="mask0_2108_842" style="mask-type:alpha" maskUnits="userSpaceOnUse" x="13" y="4" width="17" height="21">
<path d="M23.9951 15.0422C23.8877 12.9292 22.1401 11.2483 20 11.2483H15.6768C15.136 11.2483 14.6183 11.0297 14.2422 10.6428L13.623 10.0061L13.6233 4H29.5V24.7942H24V15.2483L23.9951 15.0422Z" fill="currentColor"/>
</mask>
<g mask="url(#mask0_2108_842)">
<path d="M18.4595 8.04574C19.3453 6.372 21.512 6.30634 22.4977 7.92327C22.6272 8.13575 22.7563 8.35868 22.8843 8.59057C23.3463 8.40489 23.7973 8.24785 24.226 8.1151C26.0292 7.55684 27.6022 9.04756 27.1583 10.8947C27.0729 11.2499 26.9716 11.6206 26.8538 12.0011C27.129 12.1298 27.393 12.2618 27.6434 12.3943C29.3167 13.2804 29.3819 15.4461 27.7649 16.4316C27.4758 16.6077 27.1674 16.7828 26.8428 16.9549C26.9757 17.3145 27.0942 17.6649 27.196 18.0023C27.7464 19.8251 26.2707 21.4132 24.4409 20.967C24.0764 20.8782 23.6954 20.7726 23.3038 20.6488C23.1736 20.9277 23.0421 21.1958 22.9079 21.4493C22.0219 23.1227 19.8552 23.1878 18.8697 21.5708C18.6949 21.2839 18.5204 20.9782 18.3496 20.6564C18.1987 20.7075 18.0498 20.7566 17.9036 20.8019C16.1006 21.36 14.5285 19.8684 14.9723 18.0213C15.0289 17.7854 15.0916 17.5424 15.1622 17.2945C14.8389 17.1467 14.5301 16.9953 14.2399 16.8418C12.5665 15.9559 12.5009 13.7903 14.1174 12.8046C14.3333 12.6729 14.5593 12.5398 14.7952 12.4098C14.6795 12.0898 14.5757 11.7772 14.4845 11.4754C13.9342 9.65276 15.409 8.06579 17.2387 8.51168C17.5194 8.5801 17.8099 8.65845 18.1076 8.74717C18.2231 8.50358 18.3412 8.26941 18.4595 8.04574Z" fill="currentColor"/>
</g>
<path d="M2 12.7942C2 11.1373 3.34315 9.79419 5 9.79419H10.7549C11.5652 9.79419 12.3414 10.1224 12.9062 10.7034L13.5254 11.3401C14.0902 11.9211 14.8665 12.2483 15.6768 12.2483H20C21.6567 12.2483 22.9998 13.5916 23 15.2483V24.7942C23 26.451 21.6569 27.7942 20 27.7942H5C3.34315 27.7942 2 26.451 2 24.7942V12.7942Z" fill="currentColor"/>
</svg>
