<svg width="32" height="32" viewBox="0 0 32 32" fill="none" xmlns="http://www.w3.org/2000/svg">
<path d="M14.0947 5C14.985 5 15.8294 5.39529 16.3994 6.0791L17.1006 6.9209C17.6706 7.60471 18.515 8 19.4053 8H24C25.6569 8 27 9.34315 27 11V24C27 25.6569 25.6569 27 24 27H8C6.34315 27 5 25.6569 5 24V8C5 6.34315 6.34315 5 8 5H14.0947ZM11.3125 15.4375C10.4496 15.4375 9.75 16.1371 9.75 17C9.75 17.8629 10.4496 18.5625 11.3125 18.5625C12.1754 18.5625 12.875 17.8629 12.875 17C12.875 16.1371 12.1754 15.4375 11.3125 15.4375ZM16 15.4375C15.1371 15.4375 14.4375 16.1371 14.4375 17C14.4375 17.8629 15.1371 18.5625 16 18.5625C16.8629 18.5625 17.5625 17.8629 17.5625 17C17.5625 16.1371 16.8629 15.4375 16 15.4375ZM20.6875 15.4375C19.8246 15.4375 19.125 16.1371 19.125 17C19.125 17.8629 19.8246 18.5625 20.6875 18.5625C21.5504 18.5625 22.25 17.8629 22.25 17C22.25 16.1371 21.5504 15.4375 20.6875 15.4375Z" fill="#1E1E1E"/>
</svg>
