<?xml version="1.0" encoding="UTF-8"?>
<svg width="33px" height="33px" viewBox="0 0 33 33" version="1.1" xmlns="http://www.w3.org/2000/svg" xmlns:xlink="http://www.w3.org/1999/xlink">
    <!-- Generator: Sketch 48.2 (47327) - http://www.bohemiancoding.com/sketch -->
    <title>dribbble</title>
    <desc>Created with Sketch.</desc>
    <defs></defs>
    <g id="Page-1" stroke="none" stroke-width="1" fill="none" fill-rule="evenodd">
        <g id="dribbble" fill="#000000">
            <path d="M16.003957,31.8444731 C7.2615914,31.8444731 0.14916129,24.732043 0.14916129,15.9896774 C0.14916129,7.24731183 7.2615914,0.13488172 16.003957,0.13488172 C24.7461505,0.13488172 31.8585806,7.24731183 31.8585806,15.9896774 C31.8585806,24.732043 24.7461505,31.8444731 16.003957,31.8444731 Z M29.3749677,18.16 C28.9116559,18.0137634 25.1833118,16.9016774 20.9395269,17.5810753 C22.7108817,22.4485161 23.4317419,26.4129032 23.5704086,27.2366452 C26.6085161,25.1822796 28.7714409,21.928086 29.3749677,18.16 Z M21.2937634,28.4763871 C21.0923011,27.2882581 20.3060645,23.1475269 18.4048172,18.2067957 C18.3750538,18.2169462 18.3452903,18.2265806 18.3155269,18.2369032 C10.6771613,20.8985806 7.93513978,26.1957849 7.69135484,26.6940215 C9.9876129,28.4844731 12.8732903,29.5526882 16.003957,29.5526882 C17.879914,29.5526882 19.6677849,29.1690323 21.2937634,28.4763871 Z M5.94288172,25.0651183 C6.24963441,24.540043 9.96627957,18.3862366 16.9507097,16.1286882 C17.1272258,16.0715699 17.3051183,16.0178925 17.4843871,15.9674839 C17.1444301,15.1981075 16.7740215,14.428043 16.3864086,13.6693333 C9.62339785,15.6932473 3.0608172,15.6086022 2.46830108,15.5965591 C2.46417204,15.7340215 2.46141935,15.871828 2.46141935,16.0103226 C2.46141935,19.4885161 3.77995699,22.6642581 5.94288172,25.0651183 Z M2.74752688,13.2366452 C3.35329032,13.2447312 8.93264516,13.2688172 15.2672688,11.5867527 C13.0234839,7.59793548 10.6033548,4.24430108 10.2463656,3.75466667 C6.45763441,5.54167742 3.62563441,9.03432258 2.74752688,13.2366452 Z M12.8302796,2.8443871 C13.2046452,3.34554839 15.6643441,6.69505376 17.8833548,10.7723011 C22.6988387,8.96739785 24.7375484,6.22726882 24.9809892,5.88043011 C22.5895914,3.75862366 19.4448172,2.46795699 16.003957,2.46795699 C14.9111398,2.46795699 13.8487742,2.59888172 12.8302796,2.8443871 Z M26.4865376,7.44636559 C26.2011183,7.83260215 23.9316989,10.7418495 18.9245591,12.7860645 C19.2397419,13.4310538 19.5418495,14.0872258 19.8231398,14.7475269 C19.9227527,14.9816774 20.0197849,15.2146237 20.1147527,15.4465376 C24.6209032,14.879828 29.0981505,15.787871 29.5446022,15.8823226 C29.5148387,12.6859355 28.3726452,9.75088172 26.4865376,7.44636559 Z" id="ball"></path>
        </g>
    </g>
</svg>