<?xml version="1.0" encoding="UTF-8"?>
<svg width="265px" height="140px" viewBox="0 0 265 140" version="1.1" xmlns="http://www.w3.org/2000/svg" xmlns:xlink="http://www.w3.org/1999/xlink">
    <!-- Generator: Sketch 48.2 (47327) - http://www.bohemiancoding.com/sketch -->
    <title>Symbol/Header</title>
    <desc>Created with Sketch.</desc>
    <defs></defs>
    <g id="Symbols" stroke="none" stroke-width="1" fill="none" fill-rule="evenodd">
        <g id="Symbol/Header">
            <g id="Symbol/House">
                <g id="Group-3" transform="translate(0.054000, 0.620000)">
                    <g id="Group" transform="translate(81.282000, 73.834000) rotate(-180.000000) translate(-81.282000, -73.834000) translate(51.782000, 9.334000)">
                        <path d="M37.9106491,114.753433 L39.1426097,114.753433 C42.8318373,114.753433 45.8141315,117.738466 45.8141315,121.420691 C45.8141315,125.095424 42.8271895,128.08795 39.1426097,128.08795 L20.9362996,128.08795 C17.2470719,128.08795 14.2647777,125.102917 14.2647777,121.420691 C14.2647777,117.745959 17.2517198,114.753433 20.9362996,114.753433 L23.6871637,114.753433 L23.6871637,52.4491023 L37.9106491,52.4491023 L37.9106491,114.753433 Z" id="Combined-Shape" fill="#0A138C"></path>
                        <path d="M1.05609065,3.97045984 C1.28080271,1.77763542 3.26292271,-2.84217094e-14 5.46823183,-2.84217094e-14 L53.4626774,-2.84217094e-14 C55.6747237,-2.84217094e-14 57.6433524,1.77559028 57.8075033,3.98190453 C57.8075033,3.98190453 64.5564789,58.2656841 28.9661877,58.2656841 C-6.62410352,58.2656841 1.05609065,3.97045984 1.05609065,3.97045984 Z" id="Rectangle-3-Copy-2" fill="#FE653B" transform="translate(29.347231, 29.132842) scale(1, -1) translate(-29.347231, -29.132842) "></path>
                    </g>
                    <path d="M161.838713,67.6293145 C161.838713,63.7024565 158.654678,60.5203917 154.726971,60.5203917 C150.7984,60.5203917 147.615228,63.7031649 147.615228,67.6293145 C147.615228,67.6293145 140.63,95.9018568 140.63,105.042 C140.63,116.771424 143.250576,132.02 154.98,132.02 C166.709424,132.02 169.33,116.771424 169.33,105.042 C169.33,95.7126072 161.838713,67.6293145 161.838713,67.6293145 Z" id="Combined-Shape" fill="#0A138C"></path>
                    <path d="M183.173941,25.8506462 L183.173941,48.9638099 C183.173941,61.7288577 172.821387,72.0769736 160.053506,72.0769736 L149.400436,72.0769736 C136.631372,72.0769736 126.28,61.7316644 126.28,48.9638099 L126.28,25.8506462 L126.28,23.1851805 C126.28,19.2566794 129.472028,16.072 133.391743,16.072 C137.31945,16.072 140.503485,19.2493355 140.503485,23.1851805 L140.503485,25.8506462 L147.615228,25.8506462 L147.615228,23.1851805 C147.615228,19.2566794 150.807256,16.072 154.726971,16.072 C158.654678,16.072 161.838713,19.2493355 161.838713,23.1851805 L161.838713,25.8506462 L168.950456,25.8506462 L168.950456,23.1851805 C168.950456,19.2566794 172.142484,16.072 176.062199,16.072 C179.989906,16.072 183.173941,19.2493355 183.173941,23.1851805 L183.173941,25.8506462 Z" id="Combined-Shape" fill="#FFFE3D"></path>
                    <path d="M223.328238,28.5857906 L242.52423,28.5857906 C242.52423,28.5857906 240.124731,27.6486967 240.124731,69.4661965 C240.124731,111.283696 241.45502,126.502833 241.45502,126.502833 C241.728517,130.902695 238.362129,134.469487 233.948403,134.469487 L230.756066,134.469487 C226.336778,134.469487 222.98509,130.887046 223.258652,126.495308 C223.258652,126.495308 225.727737,89.6669569 225.727737,68.8021556 C225.727737,47.9373543 223.328238,28.5857906 223.328238,28.5857906 Z" id="Combined-Shape" fill="#0A138C"></path>
                    <path d="M257.477312,12.8577341 C260.784773,13.0210874 263.466,15.8393911 263.466,19.1610403 L263.466,35.9707484 C263.466,39.288615 260.784265,42.1902022 257.487397,42.4383531 C257.487397,42.4383531 191.716,47.8968662 191.716,41.9782772 C215.627336,7.81275906 257.477312,12.8577341 257.477312,12.8577341 Z" id="Rectangle-4" fill="#FE653B"></path>
                    <path d="M5.11823715,46.494 L20.760364,46.494 L19.516253,134.328696 C19.4849208,136.540764 17.6722923,138.334 15.4569822,138.334 L13.3348567,138.334 C11.1243155,138.334 9.25002955,136.540641 9.14853438,134.328696 L5.11823715,46.494 Z" id="Rectangle-7" fill="#0A138C"></path>
                    <path d="M5.67408822,40.754 L19.9143353,40.754 C29.1800726,30.8657389 32.7812585,9.50255943 8.01716773,0.382468687 C10.0148589,7.68471304 3.74603443,15.4675481 1.08304289,24.9693957 C-1.57994864,34.4712433 5.67408822,40.754 5.67408822,40.754 Z" id="Rectangle-7-Copy" fill="#FFFE3D"></path>
                    <path d="M11.9880882,40.754 C11.9880882,40.754 10.1651846,40.754 19.9143353,40.754 C29.1800726,30.8657389 32.7812585,9.50255943 8.01716773,0.382468687 C10.0148589,7.68471304 10.0600344,15.4675481 7.39704289,24.9693957 C4.73405136,34.4712433 11.9880882,40.754 11.9880882,40.754 Z" id="Rectangle-7-Copy-2" fill="#FE653B"></path>
                </g>
            </g>
        </g>
    </g>
</svg>