<svg width="33" height="33" viewBox="0 0 33 33" fill="none" xmlns="http://www.w3.org/2000/svg">
<path d="M28.2863 2H3.71374C2.215 2 1 3.215 1 4.71374V29.2862C1 30.785 2.215 32 3.71374 32H28.2862C29.785 32 31 30.785 31 29.2862V4.71374C31 3.215 29.785 2 28.2863 2ZM10.2833 27.904C10.2833 28.3402 9.92971 28.6937 9.49353 28.6937H6.13181C5.69563 28.6937 5.34207 28.3402 5.34207 27.904V13.8118C5.34207 13.3756 5.69563 13.022 6.13181 13.022H9.49353C9.92971 13.022 10.2833 13.3756 10.2833 13.8118V27.904ZM7.81267 11.6936C6.04887 11.6936 4.61901 10.2637 4.61901 8.49995C4.61901 6.73615 6.04887 5.30628 7.81267 5.30628C9.57647 5.30628 11.0063 6.73615 11.0063 8.49995C11.0063 10.2637 9.57654 11.6936 7.81267 11.6936ZM27.8516 27.9676C27.8516 28.3686 27.5264 28.6937 27.1254 28.6937H23.5181C23.1171 28.6937 22.7919 28.3686 22.7919 27.9676V21.3575C22.7919 20.3715 23.0812 17.0365 20.215 17.0365C17.9918 17.0365 17.5408 19.3192 17.4503 20.3436V27.9676C17.4503 28.3686 17.1252 28.6937 16.7242 28.6937H13.2352C12.8342 28.6937 12.5091 28.3686 12.5091 27.9676V13.7481C12.5091 13.3471 12.8342 13.022 13.2352 13.022H16.7242C17.1252 13.022 17.4503 13.3471 17.4503 13.7481V14.9776C18.2747 13.7404 19.4998 12.7855 22.1083 12.7855C27.8846 12.7855 27.8516 18.1821 27.8516 21.1472V27.9676Z" fill="#161514"/>
</svg>
