<?xml version="1.0" encoding="UTF-8"?>
<svg width="33px" height="33px" viewBox="0 0 33 33" version="1.1" xmlns="http://www.w3.org/2000/svg" xmlns:xlink="http://www.w3.org/1999/xlink">
    <!-- Generator: Sketch 48.2 (47327) - http://www.bohemiancoding.com/sketch -->
    <title>medium</title>
    <desc>Created with Sketch.</desc>
    <defs></defs>
    <g id="Page-1" stroke="none" stroke-width="1" fill="none" fill-rule="evenodd">
        <g id="medium" fill="#12100E" fill-rule="nonzero">
            <g id="Monogram" transform="translate(5.000000, 7.000000)">
                <path d="M2.8749982,4.03651245 C2.90254178,3.76437276 2.79876308,3.49539294 2.59555412,3.31223262 L0.525597931,0.818640618 L0.525597931,0.446153846 L6.95281189,0.446153846 L11.9207067,11.3413919 L16.2883144,0.446153846 L22.4153846,0.446153846 L22.4153846,0.818640618 L20.6455721,2.5155248 C20.4929948,2.63182807 20.4173087,2.82298074 20.4489263,3.01217384 L20.4489263,15.4801339 C20.4173087,15.669327 20.4929948,15.8604796 20.6455721,15.9767829 L22.3739855,17.6736671 L22.3739855,18.0461538 L13.6801695,18.0461538 L13.6801695,17.6736671 L15.4706817,15.9353955 C15.6466279,15.7594989 15.6466279,15.7077647 15.6466279,15.4387465 L15.6466279,5.36090988 L10.6683832,18.0047664 L9.9956475,18.0047664 L4.19977016,5.36090988 L4.19977016,13.8349839 C4.15144624,14.1912578 4.26977106,14.5499477 4.52061337,14.8075883 L6.84931408,17.6322797 L6.84931408,18.0047664 L0.246153846,18.0047664 L0.246153846,17.6322797 L2.57485456,14.8075883 C2.82387051,14.5495206 2.93529572,14.1884513 2.8749982,13.8349839 L2.8749982,4.03651245 Z" id="Shape"></path>
            </g>
        </g>
    </g>
</svg>