<svg width="33" height="33" viewBox="0 0 33 33" fill="none" xmlns="http://www.w3.org/2000/svg">
<g clip-path="url(#clip0_2141_450)">
<path d="M33 0V33H0V0H33ZM5.52539 7.44629V7.81836L7.5957 10.3125C7.79864 10.4956 7.90243 10.7642 7.875 11.0361V20.835C7.93525 21.1883 7.8241 21.5496 7.5752 21.8076L5.24609 24.6318V25.0049H11.8496V24.6318L9.52051 21.8076C9.26967 21.55 9.15188 21.1912 9.2002 20.835V12.3604L14.9951 25.0049H15.668L20.6465 12.3604V22.4385C20.6465 22.7075 20.6466 22.7597 20.4707 22.9355L18.6797 24.6738V25.0459H27.374V24.6738L25.6455 22.9766C25.4931 22.8603 25.4178 22.6695 25.4492 22.4805V10.0117C25.4177 9.82266 25.4931 9.63188 25.6455 9.51562L27.415 7.81836V7.44629H21.2881L16.9209 18.3408L11.9531 7.44629H5.52539Z" fill="#12100E"/>
</g>
<defs>
<clipPath id="clip0_2141_450">
<rect width="33" height="33" fill="white"/>
</clipPath>
</defs>
</svg>
