<?xml version="1.0" encoding="UTF-8"?>
<svg width="33px" height="33px" viewBox="0 0 33 33" version="1.1" xmlns="http://www.w3.org/2000/svg" xmlns:xlink="http://www.w3.org/1999/xlink">
    <!-- Generator: Sketch 48.2 (47327) - http://www.bohemiancoding.com/sketch -->
    <title>medium</title>
    <desc>Created with Sketch.</desc>
    <defs></defs>
    <g id="Page-1" stroke="none" stroke-width="1" fill="none" fill-rule="evenodd">
        <g id="medium" fill-rule="nonzero">
            <g id="Monogram">
                <rect id="Rectangle-path" fill="#12100E" x="0" y="0" width="33" height="33"></rect>
                <path d="M7.8749982,11.0365125 C7.90254178,10.7643728 7.79876308,10.4953929 7.59555412,10.3122326 L5.52559793,7.81864062 L5.52559793,7.44615385 L11.9528119,7.44615385 L16.9207067,18.3413919 L21.2883144,7.44615385 L27.4153846,7.44615385 L27.4153846,7.81864062 L25.6455721,9.5155248 C25.4929948,9.63182807 25.4173087,9.82298074 25.4489263,10.0121738 L25.4489263,22.4801339 C25.4173087,22.669327 25.4929948,22.8604796 25.6455721,22.9767829 L27.3739855,24.6736671 L27.3739855,25.0461538 L18.6801695,25.0461538 L18.6801695,24.6736671 L20.4706817,22.9353955 C20.6466279,22.7594989 20.6466279,22.7077647 20.6466279,22.4387465 L20.6466279,12.3609099 L15.6683832,25.0047664 L14.9956475,25.0047664 L9.19977016,12.3609099 L9.19977016,20.8349839 C9.15144624,21.1912578 9.26977106,21.5499477 9.52061337,21.8075883 L11.8493141,24.6322797 L11.8493141,25.0047664 L5.24615385,25.0047664 L5.24615385,24.6322797 L7.57485456,21.8075883 C7.82387051,21.5495206 7.93529572,21.1884513 7.8749982,20.8349839 L7.8749982,11.0365125 Z" id="Shape" fill="#FFFFFF"></path>
            </g>
        </g>
    </g>
</svg>