<?xml version="1.0" encoding="UTF-8"?>
<svg width="33px" height="33px" viewBox="0 0 33 33" version="1.1" xmlns="http://www.w3.org/2000/svg" xmlns:xlink="http://www.w3.org/1999/xlink">
    <!-- Generator: Sketch 48.2 (47327) - http://www.bohemiancoding.com/sketch -->
    <title>twitter</title>
    <desc>Created with Sketch.</desc>
    <defs></defs>
    <g id="Page-1" stroke="none" stroke-width="1" fill="none" fill-rule="evenodd">
        <g id="twitter" fill="#161514" fill-rule="nonzero">
            <path d="M10.4666643,28.75 C21.7218365,28.75 27.8779409,19.3233833 27.8779409,11.1486637 C27.8779409,10.8809169 27.8779409,10.6143762 27.8600452,10.3490416 C29.0576597,9.47332967 30.0914606,8.38903784 30.9130435,7.14693468 C29.7962104,7.64721325 28.6114589,7.97529578 27.3983374,8.12023043 C28.6757816,7.3471201 29.6318621,6.13115158 30.0886504,4.69861943 C28.8874436,5.41919034 27.5732925,5.92701278 26.2029078,6.20017238 C24.3060674,4.16118925 21.2920061,3.66214096 18.8508362,4.98286513 C16.4096663,6.3035893 15.148495,9.11562825 15.7745148,11.842152 C10.8542791,11.5927972 6.27010501,9.24346835 3.16285217,5.378841 C1.53866993,8.20543269 2.36827076,11.8214794 5.05740522,13.6367792 C4.08357299,13.6076015 3.13097331,13.3420324 2.28,12.8624844 C2.28,12.8878118 2.28,12.9143453 2.28,12.9408787 C2.28079711,15.8856025 4.33412439,18.4218909 7.18937391,19.0049817 C6.28847051,19.2533591 5.34323528,19.2896668 4.42628522,19.1111155 C5.22794831,21.6310987 7.52530461,23.3574155 10.1433496,23.4071249 C7.97646649,25.1287029 5.29966404,26.0632789 2.54366261,26.0604714 C2.05678582,26.0595265 1.57038259,26.0297258 1.08695652,25.9712225 C3.88540219,27.7866863 7.14154886,28.7496586 10.4666643,28.7451757" id="Shape"></path>
        </g>
    </g>
</svg>